<?xml version="1.0" standalone="no"?><!DOCTYPE svg PUBLIC "-//W3C//DTD SVG 1.1//EN" "http://www.w3.org/Graphics/SVG/1.1/DTD/svg11.dtd"><svg class="icon" width="30px" height="30.00px" viewBox="0 0 1024 1024" version="1.1" xmlns="http://www.w3.org/2000/svg"><path d="M512 25.6c-268.8 0-486.4 217.6-486.4 486.4s217.6 486.4 486.4 486.4 486.4-217.6 486.4-486.4-217.6-486.4-486.4-486.4z m211.968 518.656l-259.584 188.928c-5.12 3.584-11.264 5.632-17.408 5.632-5.632 0-10.752-1.536-15.872-4.608-10.24-6.656-16.896-19.456-16.896-33.28v-378.368c0-13.824 6.656-26.624 16.896-33.28 10.24-6.656 23.04-6.144 32.768 1.024l259.584 188.928c9.728 6.656 15.36 18.944 15.36 32.256s-5.632 25.6-14.848 32.768z m0 0" fill="#FF664D" /></svg>