<?xml version="1.0" standalone="no"?><!DOCTYPE svg PUBLIC "-//W3C//DTD SVG 1.1//EN" "http://www.w3.org/Graphics/SVG/1.1/DTD/svg11.dtd"><svg class="icon" width="30px" height="30.00px" viewBox="0 0 1024 1024" version="1.1" xmlns="http://www.w3.org/2000/svg"><path d="M501.940706 0c277.082353 0 502.000941 224.858353 502.000941 501.940706s-224.918588 502.000941-502.000941 502.000941A502.121412 502.121412 0 0 1 0 501.940706C0 224.858353 224.858353 0 501.940706 0zM298.224941 451.764706a47.224471 47.224471 0 0 0-47.22447 47.22447v5.963295c0 26.081882 21.082353 47.224471 47.22447 47.22447h407.491765a47.224471 47.224471 0 0 0 47.22447-47.22447v-5.963295a47.224471 47.224471 0 0 0-47.22447-47.22447H298.224941z" fill="#E6394E" /></svg>